<?xml version="1.0" encoding="UTF-8"?>
<svg version="1.1" xmlns="http://www.w3.org/2000/svg" width="256" height="256">
<path d="M0 0 C0.87391388 0.00425995 1.74782776 0.0085199 2.64822388 0.01290894 C16.02483782 0.1034948 28.51078043 0.95983149 41.1875 5.5625 C41.9285498 5.81950684 42.66959961 6.07651367 43.43310547 6.34130859 C58.1461769 11.54148073 71.41051353 19.326797 83.1875 29.5625 C84.01765625 30.27148438 84.8478125 30.98046875 85.703125 31.7109375 C108.52514509 51.66270353 125.38588657 80.47194619 128.43106079 111.00457764 C128.80782437 116.79374387 128.81019687 122.5762428 128.75 128.375 C128.74607239 129.24824921 128.74214478 130.12149841 128.73809814 131.02120972 C128.65336469 144.40251933 127.73444544 156.86706819 123.1875 169.5625 C122.95756348 170.2440918 122.72762695 170.92568359 122.49072266 171.62792969 C111.74061029 203.10985819 87.42331113 229.30224507 58.0625 244.375 C39.11217679 253.40501979 21.28407655 257.34205701 0.375 257.125 C-0.49824921 257.12107239 -1.37149841 257.11714478 -2.27120972 257.11309814 C-15.65251933 257.02836469 -28.11706819 256.10944544 -40.8125 251.5625 C-41.4940918 251.33256348 -42.17568359 251.10262695 -42.87792969 250.86572266 C-74.35985819 240.11561029 -100.55224507 215.79831113 -115.625 186.4375 C-124.65444283 167.48838759 -128.59424701 149.65828289 -128.375 128.75 C-128.37074005 127.87608612 -128.3664801 127.00217224 -128.36209106 126.10177612 C-128.2715052 112.72516218 -127.41516851 100.23921957 -122.8125 87.5625 C-122.55549316 86.8214502 -122.29848633 86.08040039 -122.03369141 85.31689453 C-116.83351927 70.6038231 -109.048203 57.33948647 -98.8125 45.5625 C-98.10351562 44.73234375 -97.39453125 43.9021875 -96.6640625 43.046875 C-71.89741184 14.71730267 -37.44787313 -0.39268333 0 0 Z " fill="#4F288F" transform="translate(127.8125,-0.5625)"/>
<path d="M0 0 C2.56850095 0.00535866 5.13682656 0.00001667 7.70532227 -0.00634766 C57.98742606 -0.03192013 57.98742606 -0.03192013 71.45336914 10.44677734 C78.68938674 19.33970058 80.54264602 27.04844658 80.43383789 38.38037109 C80.43789382 39.72835923 80.44372862 41.07634305 80.45123291 42.42431641 C80.46001299 45.23171302 80.44744045 48.03795407 80.41918945 50.84521484 C80.38500216 54.41290295 80.40472165 57.97788208 80.44062424 61.54547119 C80.46248557 64.32376892 80.45532463 67.10144242 80.43985748 69.87976074 C80.43400655 71.8243184 80.4519714 73.76890208 80.47064209 75.71337891 C80.32559341 84.95447839 78.16910819 92.0950865 71.89550781 99.06515503 C65.20894019 105.46090632 56.6327099 107.69171544 47.69946289 108.81787109 C46.86995117 108.93453125 46.04043945 109.05119141 45.18579102 109.17138672 C44.3562793 109.28546875 43.52676758 109.39955078 42.67211914 109.51708984 C41.84317139 109.63552246 41.01422363 109.75395508 40.16015625 109.87597656 C37.63696289 110.13037109 37.63696289 110.13037109 35.06884766 110.02929688 C32.25881791 109.99000329 30.27804136 110.14371628 27.63696289 111.13037109 C24.23071265 114.55116324 21.89677426 118.49064042 19.44946289 122.63037109 C18.12586762 124.76778985 16.79908301 126.90323717 15.46899414 129.03662109 C14.8304248 130.06529297 14.19185547 131.09396484 13.53393555 132.15380859 C11.74284995 134.96422244 9.91679972 137.71319593 7.96118164 140.41162109 C7.43999756 141.13414062 6.91881348 141.85666016 6.38183594 142.60107422 C4.63696289 144.13037109 4.63696289 144.13037109 2.07006836 144.51464844 C-0.36303711 144.13037109 -0.36303711 144.13037109 -2.61694336 141.70068359 C-3.40404267 140.56421463 -4.17237036 139.41460657 -4.92553711 138.25537109 C-5.34246826 137.64346924 -5.75939941 137.03156738 -6.18896484 136.40112305 C-7.59831717 134.3223995 -8.98080635 132.22721515 -10.36303711 130.13037109 C-11.45576772 128.49557467 -12.54954973 126.86148062 -13.64428711 125.22802734 C-16.21489694 121.38747935 -18.76743768 117.53545256 -21.30664062 113.67407227 C-22.27570246 112.15630223 -22.27570246 112.15630223 -23.36303711 111.13037109 C-25.3977185 110.79565997 -27.44175665 110.51753809 -29.48803711 110.26318359 C-31.38489258 110.01761719 -31.38489258 110.01761719 -33.32006836 109.76708984 C-35.98348517 109.42810952 -38.64762166 109.09654511 -41.31225586 108.76708984 C-61.30898623 106.15882067 -61.30898623 106.15882067 -67.36303711 99.13037109 C-72.62553802 91.89579427 -75.42390742 86.51127149 -75.57177734 77.52075195 C-75.59106796 76.41867905 -75.61035858 75.31660614 -75.63023376 74.18113708 C-75.68842376 69.14057067 -75.73726714 64.10013977 -75.76806641 59.05932617 C-75.78961267 56.41075576 -75.82367459 53.76225591 -75.87060547 51.11401367 C-75.93795566 47.27409398 -75.9651265 43.43564369 -75.98413086 39.59521484 C-76.01196152 38.42603012 -76.03979218 37.2568454 -76.06846619 36.05223083 C-76.04556318 26.77268916 -73.66038495 18.8197345 -67.27952576 11.85679626 C-60.56611873 5.59024059 -53.91408883 3.5978503 -44.98803711 2.50537109 C-43.65579102 2.32361328 -43.65579102 2.32361328 -42.29663086 2.13818359 C-28.22665149 0.3124599 -14.16621194 -0.03501488 0 0 Z " fill="#512A90" transform="translate(125.363037109375,55.86962890625)"/>
<path d="M0 0 C2.56850095 0.00535866 5.13682656 0.00001667 7.70532227 -0.00634766 C57.98742606 -0.03192013 57.98742606 -0.03192013 71.45336914 10.44677734 C78.68938674 19.33970058 80.54264602 27.04844658 80.43383789 38.38037109 C80.43789382 39.72835923 80.44372862 41.07634305 80.45123291 42.42431641 C80.46001299 45.23171302 80.44744045 48.03795407 80.41918945 50.84521484 C80.38500216 54.41290295 80.40472165 57.97788208 80.44062424 61.54547119 C80.46248557 64.32376892 80.45532463 67.10144242 80.43985748 69.87976074 C80.43400655 71.8243184 80.4519714 73.76890208 80.47064209 75.71337891 C80.32559341 84.95447839 78.16910819 92.0950865 71.89550781 99.06515503 C65.20894019 105.46090632 56.6327099 107.69171544 47.69946289 108.81787109 C46.86995117 108.93453125 46.04043945 109.05119141 45.18579102 109.17138672 C44.3562793 109.28546875 43.52676758 109.39955078 42.67211914 109.51708984 C41.84317139 109.63552246 41.01422363 109.75395508 40.16015625 109.87597656 C37.63696289 110.13037109 37.63696289 110.13037109 35.06884766 110.02929688 C32.25881791 109.99000329 30.27804136 110.14371628 27.63696289 111.13037109 C24.23071265 114.55116324 21.89677426 118.49064042 19.44946289 122.63037109 C18.12586762 124.76778985 16.79908301 126.90323717 15.46899414 129.03662109 C14.8304248 130.06529297 14.19185547 131.09396484 13.53393555 132.15380859 C11.74284995 134.96422244 9.91679972 137.71319593 7.96118164 140.41162109 C7.43999756 141.13414062 6.91881348 141.85666016 6.38183594 142.60107422 C4.63696289 144.13037109 4.63696289 144.13037109 2.07006836 144.51464844 C-0.36303711 144.13037109 -0.36303711 144.13037109 -2.61694336 141.70068359 C-3.40404267 140.56421463 -4.17237036 139.41460657 -4.92553711 138.25537109 C-5.34246826 137.64346924 -5.75939941 137.03156738 -6.18896484 136.40112305 C-7.59831717 134.3223995 -8.98080635 132.22721515 -10.36303711 130.13037109 C-11.45576772 128.49557467 -12.54954973 126.86148062 -13.64428711 125.22802734 C-16.21489694 121.38747935 -18.76743768 117.53545256 -21.30664062 113.67407227 C-22.27570246 112.15630223 -22.27570246 112.15630223 -23.36303711 111.13037109 C-25.3977185 110.79565997 -27.44175665 110.51753809 -29.48803711 110.26318359 C-31.38489258 110.01761719 -31.38489258 110.01761719 -33.32006836 109.76708984 C-35.98348517 109.42810952 -38.64762166 109.09654511 -41.31225586 108.76708984 C-61.30898623 106.15882067 -61.30898623 106.15882067 -67.36303711 99.13037109 C-72.62553802 91.89579427 -75.42390742 86.51127149 -75.57177734 77.52075195 C-75.59106796 76.41867905 -75.61035858 75.31660614 -75.63023376 74.18113708 C-75.68842376 69.14057067 -75.73726714 64.10013977 -75.76806641 59.05932617 C-75.78961267 56.41075576 -75.82367459 53.76225591 -75.87060547 51.11401367 C-75.93795566 47.27409398 -75.9651265 43.43564369 -75.98413086 39.59521484 C-76.01196152 38.42603012 -76.03979218 37.2568454 -76.06846619 36.05223083 C-76.04556318 26.77268916 -73.66038495 18.8197345 -67.27952576 11.85679626 C-60.56611873 5.59024059 -53.91408883 3.5978503 -44.98803711 2.50537109 C-43.65579102 2.32361328 -43.65579102 2.32361328 -42.29663086 2.13818359 C-28.22665149 0.3124599 -14.16621194 -0.03501488 0 0 Z M-40.36303711 13.13037109 C-41.63018555 13.27474609 -42.89733398 13.41912109 -44.20288086 13.56787109 C-51.27551375 14.52803459 -55.60587267 16.29868869 -60.67553711 21.50537109 C-64.51671978 27.48054413 -63.53984904 35.22953964 -63.56616211 42.09912109 C-63.57186218 43.25279175 -63.57756226 44.4064624 -63.58343506 45.59509277 C-63.59286067 48.02920623 -63.59940932 50.4633323 -63.60327148 52.89746094 C-63.61300278 56.61724997 -63.64406041 60.33649222 -63.67553711 64.05615234 C-63.68206529 66.42463866 -63.68731648 68.79312891 -63.69116211 71.16162109 C-63.70350891 72.27114136 -63.71585571 73.38066162 -63.72857666 74.52380371 C-63.7095894 81.11174434 -63.18539 85.70845101 -58.85522461 90.95849609 C-58.32155273 91.42771484 -57.78788086 91.89693359 -57.23803711 92.38037109 C-56.71983398 92.85990234 -56.20163086 93.33943359 -55.66772461 93.83349609 C-48.20165611 98.03474142 -38.23956398 97.92114081 -29.89038086 98.63427734 C-22.02814656 99.50320603 -15.95857409 101.80052643 -10.79223633 108.02197266 C-9.43358706 110.01074143 -8.22587615 112.02858834 -7.05053711 114.13037109 C-6.24262017 115.50576888 -5.43403616 116.88077506 -4.62475586 118.25537109 C-4.24625488 118.90763672 -3.86775391 119.55990234 -3.4777832 120.23193359 C-1.87378127 122.96358472 -0.23704032 125.57309592 1.63696289 128.13037109 C2.29696289 128.13037109 2.95696289 128.13037109 3.63696289 128.13037109 C4.99165169 126.51833395 4.99165169 126.51833395 6.31665039 124.40380859 C6.83356445 123.61876953 7.35047852 122.83373047 7.88305664 122.02490234 C8.4205957 121.19345703 8.95813477 120.36201172 9.51196289 119.50537109 C10.04176758 118.69712891 10.57157227 117.88888672 11.11743164 117.05615234 C13.98373101 112.6864583 13.98373101 112.6864583 16.80371094 108.28686523 C19.84544186 103.54344639 23.26727397 100.9202674 28.63696289 99.13037109 C30.38363525 99.01874943 32.13086255 98.91154279 33.87963867 98.84008789 C50.50649018 98.42369801 50.50649018 98.42369801 64.63696289 91.13037109 C69.74015319 84.24889007 70.37751858 78.10657089 70.30102539 69.72021484 C70.30580902 68.55333633 70.31059265 67.38645782 70.31552124 66.18421936 C70.31890833 63.7293258 70.30978996 61.2743864 70.28881836 58.81958008 C70.26201495 55.07514428 70.28862298 51.33369952 70.32055664 47.58935547 C70.31725281 45.19546869 70.31084713 42.80158376 70.30102539 40.40771484 C70.31114655 39.29605453 70.3212677 38.18439423 70.33169556 37.03904724 C70.22932002 30.20915965 69.27959651 25.32026598 64.63696289 20.13037109 C42.89555169 1.89435868 -13.88688032 9.8201126 -40.36303711 13.13037109 Z " fill="#F8F7FA" transform="translate(125.363037109375,55.86962890625)"/>
<path d="M0 0 C20.79 0 41.58 0 63 0 C61.98113632 6.1131821 61.62291495 7.46635741 57.375 11.3203125 C46.62657973 18.92199131 33.66167241 19.35612246 21 18 C13.54469619 16.59081375 6.96023018 13.94039543 2 8 C0.11786393 4.90880964 0 3.828671 0 0 Z " fill="#FBFBFD" transform="translate(97,116)"/>
<path d="M0 0 C0.66 0.33 1.32 0.66 2 1 C-0.31 3.31 -2.62 5.62 -5 8 C-5.66 7.67 -6.32 7.34 -7 7 C-4.66666667 4.66666667 -2.33333333 2.33333333 0 0 Z " fill="#DFD8EA" transform="translate(149,156)"/>
</svg>
